# xmcd
#
# Track frame offsets:
#	150
#	10952
#	24928
#	35645
#	46419
#	57741
#	68178
#	83473
#	96406
#	109562
#	121950
#	135411
#	146800
#	157820
#	171533
#	183991
#
# Disc length: 2608 seconds
#
# Revision: 1
# Processed by: cddbd v1.5.2PL0 Copyright (c) Steve Scherf et al.
# Submitted via: audiograbber 1.83.01
#
DISCID=d70a2e10
DTITLE=Various Artist - Cowboy Heartaches
DYEAR=2000
DGENRE=Country
TTITLE0=Waylon Jennings - Burning memories
TTITLE1=Lynn Anderson - Cry
TTITLE2=Carl Perkins - What am I living for
TTITLE3=Billie Jo Spears - I'm so lonesome I could cry
TTITLE4=Roy Drusky - The last letter
TTITLE5=Carl Perkins - I don't like what I'm seeing in you
TTITLE6=Porter Wagoner - Skid row Joe
TTITLE7=Billie Jo Spears - He's on the run again
TTITLE8=Kenny Rogers - Ruby, don't take your love to town
TTITLE9=Carl Perkins - Mama
TTITLE10=David Houston - Almost persuaded
TTITLE11=Roy Drusky - Take these chains from my heart
TTITLE12=Porter Wagoner - Misery loves company
TTITLE13=Lynn Anderson - Talking in your sleep
TTITLE14=Billie Jo Spears - Sunshine
TTITLE15=Don Gibson -  Oh, lonesome me
EXTD=
EXTT0=
EXTT1=
EXTT2=
EXTT3=
EXTT4=
EXTT5=
EXTT6=
EXTT7=
EXTT8=
EXTT9=
EXTT10=
EXTT11=
EXTT12=
EXTT13=
EXTT14=
EXTT15=
PLAYORDER=
